<?xml version="1.0" encoding="UTF-8"?>
<!DOCTYPE svg PUBLIC "-//W3C//DTD SVG 1.1//EN" "http://www.w3.org/Graphics/SVG/1.1/DTD/svg11.dtd">
<svg xmlns="http://www.w3.org/2000/svg" version="1.1" width="512px" height="512px" style="shape-rendering:geometricPrecision; text-rendering:geometricPrecision; image-rendering:optimizeQuality; fill-rule:evenodd; clip-rule:evenodd" xmlns:xlink="http://www.w3.org/1999/xlink">
<g><path style="opacity:0.983" fill="#020101" d="M 224.5,-0.5 C 238.167,-0.5 251.833,-0.5 265.5,-0.5C 301.127,3.09431 334.96,13.0943 367,29.5C 385.903,25.2923 405.07,22.9589 424.5,22.5C 429.195,22.8859 433.695,23.8859 438,25.5C 439.787,32.1102 439.787,38.7768 438,45.5C 436.003,57.3209 432.836,68.8209 428.5,80C 466.2,124.24 491.034,175.073 503,232.5C 506.831,251.836 509.664,271.17 511.5,290.5C 511.5,314.833 511.5,339.167 511.5,363.5C 510.28,386.95 507.113,410.283 502,433.5C 489.969,483.027 458.469,509.027 407.5,511.5C 378.833,511.5 350.167,511.5 321.5,511.5C 311.804,510.654 302.971,507.321 295,501.5C 290.274,506.272 284.774,509.606 278.5,511.5C 256.167,511.5 233.833,511.5 211.5,511.5C 209.856,510.684 208.69,509.35 208,507.5C 207.829,502.136 207.329,496.802 206.5,491.5C 201.833,488.833 197.167,488.833 192.5,491.5C 191.671,496.802 191.171,502.136 191,507.5C 190.31,509.35 189.144,510.684 187.5,511.5C 164.833,511.5 142.167,511.5 119.5,511.5C 114.742,509.87 110.242,507.536 106,504.5C 98.4597,508.166 90.6264,510.499 82.5,511.5C 60.5,511.5 38.5,511.5 16.5,511.5C 8.5,508.167 2.83333,502.5 -0.5,494.5C -0.5,470.833 -0.5,447.167 -0.5,423.5C 6.10113,404.685 19.4345,396.852 39.5,400C 53.1708,403.673 61.3375,412.507 64,426.5C 65.7888,429.179 66.9555,429.013 67.5,426C 61.8174,389.084 62.3174,352.25 69,315.5C 70.2712,308.853 72.4378,302.52 75.5,296.5C 36.9453,263.333 23.7786,222 36,172.5C 43.6618,155.002 55.4951,141.002 71.5,130.5C 73.9305,123.041 76.2638,115.541 78.5,108C 65.0695,89.0481 57.5695,67.8814 56,44.5C 55.0852,38.0559 55.4185,31.7226 57,25.5C 61.5721,23.486 66.4054,22.486 71.5,22.5C 92.6779,22.8332 113.511,25.4999 134,30.5C 153.583,17.1895 175.083,8.35616 198.5,4C 207.299,2.43768 215.966,0.937678 224.5,-0.5 Z"/></g>
<g><path style="opacity:1" fill="#fce1dd" d="M 328.5,60.5 C 292.451,41.4036 254.117,33.5703 213.5,37C 172.916,45.1868 140.749,66.0201 117,99.5C 115.546,102.071 114.38,104.738 113.5,107.5C 112.833,108.833 112.167,110.167 111.5,111.5C 104.463,126.446 99.296,142.113 96,158.5C 80.0776,168.754 68.0776,182.42 60,199.5C 54.8798,214.901 54.0465,230.568 57.5,246.5C 36.2279,202.632 45.7279,167.299 86,140.5C 90.8007,121.29 97.134,102.623 105,84.5C 119.873,60.3001 140.373,42.4668 166.5,31C 209.784,13.7155 254.117,10.7155 299.5,22C 314.91,25.8033 329.91,30.8033 344.5,37C 337.386,40.4469 331.886,45.6135 328,52.5C 327.398,55.2205 327.565,57.8872 328.5,60.5 Z"/></g>
<g><path style="opacity:1" fill="#fec5c1" d="M 328.5,60.5 C 330.326,62.1475 331.66,64.1475 332.5,66.5C 327.243,88.8828 331.076,109.549 344,128.5C 350.089,136.635 357.922,139.135 367.5,136C 375.572,132.085 382.238,126.585 387.5,119.5C 390.067,118.525 392.733,117.858 395.5,117.5C 413.227,145.497 425.394,175.83 432,208.5C 439.19,249.176 442.69,290.176 442.5,331.5C 441.436,335.441 441.436,339.441 442.5,343.5C 441.965,391.512 440.965,439.512 439.5,487.5C 435.974,488.974 432.307,490.307 428.5,491.5C 428.5,491.167 428.5,490.833 428.5,490.5C 429.117,490.389 429.617,490.056 430,489.5C 431.355,479.541 430.355,469.874 427,460.5C 425.97,458.654 424.804,456.987 423.5,455.5C 423.5,452.833 423.5,450.167 423.5,447.5C 410.927,443.79 400.094,437.124 391,427.5C 386.325,407.185 373.492,398.019 352.5,400C 347.168,401.999 342.168,404.499 337.5,407.5C 335.833,407.5 334.167,407.5 332.5,407.5C 332.5,406.5 332.5,405.5 332.5,404.5C 334.211,389.552 335.211,374.552 335.5,359.5C 332.833,359.5 330.167,359.5 327.5,359.5C 327.667,348.828 327.5,338.161 327,327.5C 325.074,325.461 322.907,323.794 320.5,322.5C 330.767,309.97 338.433,295.97 343.5,280.5C 354.569,263.238 359.902,244.238 359.5,223.5C 354.167,223.5 348.833,223.5 343.5,223.5C 345.032,257.611 330.032,281.111 298.5,294C 274.989,302.933 250.655,308.266 225.5,310C 203.513,311.333 181.513,311.666 159.5,311C 131.033,307.85 105.366,297.85 82.5,281C 71.1737,271.531 62.8404,260.031 57.5,246.5C 54.0465,230.568 54.8798,214.901 60,199.5C 68.0776,182.42 80.0776,168.754 96,158.5C 99.296,142.113 104.463,126.446 111.5,111.5C 112.026,124.861 118.86,132.861 132,135.5C 140.772,134.3 144.439,129.3 143,120.5C 138.872,108.862 130.705,103.362 118.5,104C 116.677,104.997 115.01,106.164 113.5,107.5C 114.38,104.738 115.546,102.071 117,99.5C 140.749,66.0201 172.916,45.1868 213.5,37C 254.117,33.5703 292.451,41.4036 328.5,60.5 Z"/></g>
<g><path style="opacity:1" fill="#eb7984" d="M 99.5,42.5 C 105.455,41.3231 111.455,41.8231 117.5,44C 115.317,46.3504 112.984,48.517 110.5,50.5C 106.815,47.8086 103.148,45.1419 99.5,42.5 Z"/></g>
<g><path style="opacity:1" fill="#f29097" d="M 373.5,60.5 C 366.919,58.2096 360.919,54.8763 355.5,50.5C 361.348,47.2778 367.682,45.1111 374.5,44C 380.756,42.3446 387.089,41.678 393.5,42C 386.01,47.3256 379.343,53.4923 373.5,60.5 Z"/></g>
<g><path style="opacity:1" fill="#b63953" d="M 83.5,84.5 C 91.7029,75.8624 91.3695,67.3624 82.5,59C 80,57.1667 77.5,55.3333 75,53.5C 74.6012,53.7284 74.4346,54.0618 74.5,54.5C 72.8256,51.4456 72.3256,48.1123 73,44.5C 83.0173,49.2516 91.8506,55.5849 99.5,63.5C 93.9683,71.227 89.4683,79.5603 86,88.5C 84.9054,87.3066 84.072,85.9733 83.5,84.5 Z"/></g>
<g><path style="opacity:1" fill="#b93a55" d="M 415.5,65.5 C 415.631,64.6236 415.298,63.9569 414.5,63.5C 401.11,69.7312 389.61,78.3978 380,89.5C 377.713,92.0722 376.547,95.0722 376.5,98.5C 376.501,88.3324 379.668,78.9991 386,70.5C 395.413,59.4695 406.746,51.1361 420,45.5C 419.748,52.5035 418.248,59.1702 415.5,65.5 Z"/></g>
<g><path style="opacity:1" fill="#fa7d89" d="M 355.5,50.5 C 360.919,54.8763 366.919,58.2096 373.5,60.5C 369.062,67.0404 365.395,74.0404 362.5,81.5C 356.957,72.914 351.291,64.414 345.5,56C 348.406,53.3805 351.739,51.5472 355.5,50.5 Z"/></g>
<g><path style="opacity:1" fill="#de5c74" d="M 83.5,84.5 C 79.2603,74.875 76.2603,64.875 74.5,54.5C 74.4346,54.0618 74.6012,53.7284 75,53.5C 77.5,55.3333 80,57.1667 82.5,59C 91.3695,67.3624 91.7029,75.8624 83.5,84.5 Z"/></g>
<g><path style="opacity:1" fill="#e05d75" d="M 415.5,65.5 C 412.401,78.5355 406.067,89.7022 396.5,99C 393.427,101.452 389.927,102.952 386,103.5C 382.55,102.194 379.384,100.527 376.5,98.5C 376.547,95.0722 377.713,92.0722 380,89.5C 389.61,78.3978 401.11,69.7312 414.5,63.5C 415.298,63.9569 415.631,64.6236 415.5,65.5 Z"/></g>
<g><path style="opacity:1" fill="#fda7ac" d="M 332.5,66.5 C 342.304,80.4886 351.97,94.6553 361.5,109C 369.449,114.481 378.116,117.981 387.5,119.5C 382.238,126.585 375.572,132.085 367.5,136C 357.922,139.135 350.089,136.635 344,128.5C 331.076,109.549 327.243,88.8828 332.5,66.5 Z"/></g>
<g><path style="opacity:1" fill="#fadfdb" d="M 476.5,455.5 C 478.759,444.546 480.926,433.546 483,422.5C 487.165,385.271 488.498,347.938 487,310.5C 483.194,238.732 460.194,174.066 418,116.5C 415.715,113.568 413.215,110.902 410.5,108.5C 413.453,104.375 416.619,100.375 420,96.5C 455.651,140.032 478.651,189.699 489,245.5C 492.536,263.658 494.536,281.991 495,300.5C 496.972,341.761 494.639,382.761 488,423.5C 485.423,434.738 481.59,445.405 476.5,455.5 Z"/></g>
<g><path style="opacity:1" fill="#060404" d="M 111.5,111.5 C 112.167,110.167 112.833,108.833 113.5,107.5C 115.01,106.164 116.677,104.997 118.5,104C 130.705,103.362 138.872,108.862 143,120.5C 144.439,129.3 140.772,134.3 132,135.5C 118.86,132.861 112.026,124.861 111.5,111.5 Z"/></g>
<g><path style="opacity:1" fill="#050404" d="M 256.5,103.5 C 267.37,102.868 272.204,107.868 271,118.5C 266.905,130.126 258.738,135.626 246.5,135C 238.1,128.511 237.267,121.011 244,112.5C 247.651,108.609 251.818,105.609 256.5,103.5 Z"/></g>
<g><path style="opacity:1" fill="#fed6d0" d="M 410.5,108.5 C 413.215,110.902 415.715,113.568 418,116.5C 460.194,174.066 483.194,238.732 487,310.5C 488.498,347.938 487.165,385.271 483,422.5C 480.926,433.546 478.759,444.546 476.5,455.5C 471.152,465.684 463.819,474.184 454.5,481C 449.701,483.735 444.701,485.902 439.5,487.5C 440.965,439.512 441.965,391.512 442.5,343.5C 446.692,351.69 453.359,356.357 462.5,357.5C 469.785,357.549 473.451,353.882 473.5,346.5C 470.812,331.992 462.146,325.492 447.5,327C 445.313,328.025 443.646,329.525 442.5,331.5C 442.69,290.176 439.19,249.176 432,208.5C 425.394,175.83 413.227,145.497 395.5,117.5C 400.997,115.255 405.997,112.255 410.5,108.5 Z"/></g>
<g><path style="opacity:1" fill="#050303" d="M 254.5,206.5 C 241.734,218.216 226.734,225.716 209.5,229C 180.011,234.973 152.011,230.973 125.5,217C 120.77,213.971 116.437,210.471 112.5,206.5C 97.8009,185.162 101.134,166.995 122.5,152C 140.403,140.95 159.903,135.45 181,135.5C 205.774,134.533 228.274,141.033 248.5,155C 266.157,170.405 268.157,187.572 254.5,206.5 Z"/></g>
<g><path style="opacity:1" fill="#f8949b" d="M 226.5,160.5 C 234.731,174.235 231.731,184.902 217.5,192.5C 221.928,187.306 223.761,181.306 223,174.5C 216.468,166.222 208.968,165.389 200.5,172C 193.95,176.929 191.117,183.429 192,191.5C 192.967,194.621 194.8,196.954 197.5,198.5C 188.181,199.73 178.848,199.73 169.5,198.5C 173.148,196.049 175.148,192.549 175.5,188C 172.377,172.961 163.377,166.628 148.5,169C 143.059,174.008 142.059,179.841 145.5,186.5C 137.02,180.593 134.02,172.593 136.5,162.5C 150.109,155.098 164.776,151.431 180.5,151.5C 196.669,150.993 212.002,153.993 226.5,160.5 Z"/></g>
<g><path style="opacity:1" fill="#fb7e8a" d="M 226.5,160.5 C 237.147,164.645 244.147,172.145 247.5,183C 246.654,190.688 242.987,196.688 236.5,201C 219.426,211.63 200.76,216.463 180.5,215.5C 164.997,215.457 150.33,211.957 136.5,205C 113.94,190.658 113.94,176.492 136.5,162.5C 134.02,172.593 137.02,180.593 145.5,186.5C 150.653,196.343 158.653,200.343 169.5,198.5C 178.848,199.73 188.181,199.73 197.5,198.5C 205.158,200.014 211.825,198.014 217.5,192.5C 231.731,184.902 234.731,174.235 226.5,160.5 Z"/></g>
<g><path style="opacity:1" fill="#060303" d="M 169.5,198.5 C 158.653,200.343 150.653,196.343 145.5,186.5C 142.059,179.841 143.059,174.008 148.5,169C 163.377,166.628 172.377,172.961 175.5,188C 175.148,192.549 173.148,196.049 169.5,198.5 Z"/></g>
<g><path style="opacity:1" fill="#060303" d="M 217.5,192.5 C 211.825,198.014 205.158,200.014 197.5,198.5C 194.8,196.954 192.967,194.621 192,191.5C 191.117,183.429 193.95,176.929 200.5,172C 208.968,165.389 216.468,166.222 223,174.5C 223.761,181.306 221.928,187.306 217.5,192.5 Z"/></g>
<g><path style="opacity:1" fill="#faa5aa" d="M 112.5,206.5 C 116.437,210.471 120.77,213.971 125.5,217C 152.011,230.973 180.011,234.973 209.5,229C 226.734,225.716 241.734,218.216 254.5,206.5C 250.073,216.761 242.74,224.261 232.5,229C 200.606,242.514 168.606,242.847 136.5,230C 125.32,225.319 117.32,217.486 112.5,206.5 Z"/></g>
<g><path style="opacity:1" fill="#fda7ac" d="M 343.5,280.5 C 338.433,295.97 330.767,309.97 320.5,322.5C 312.337,318.154 304.004,317.488 295.5,320.5C 288.153,322.343 281.819,326.009 276.5,331.5C 267.968,339.697 260.968,349.03 255.5,359.5C 252.833,359.5 250.167,359.5 247.5,359.5C 247.658,397.528 236.158,431.528 213,461.5C 211.058,465.838 209.225,470.171 207.5,474.5C 202.167,473.167 196.833,473.167 191.5,474.5C 190.202,471.578 189.202,468.578 188.5,465.5C 203.573,445.017 214.073,422.35 220,397.5C 221.837,383.665 216.337,374.165 203.5,369C 186.19,367.747 168.856,366.581 151.5,365.5C 151.5,363.5 151.5,361.5 151.5,359.5C 148.833,359.5 146.167,359.5 143.5,359.5C 139.825,344.821 133.492,331.487 124.5,319.5C 145.005,325.522 166.005,328.188 187.5,327.5C 217.855,327.423 247.855,324.256 277.5,318C 294.249,313.79 309.915,307.123 324.5,298C 331.656,293.008 337.99,287.175 343.5,280.5 Z"/></g>
<g><path style="opacity:1" fill="#fce1dd" d="M 102.5,311.5 C 93.713,351.367 93.213,391.367 101,431.5C 103.594,443.448 107.094,455.115 111.5,466.5C 107.794,467.29 104.128,468.29 100.5,469.5C 99.5581,469.392 98.7247,469.059 98,468.5C 86.8694,444.092 80.8694,418.425 80,391.5C 77.8163,362.322 80.6496,333.655 88.5,305.5C 93.3925,306.946 98.0591,308.946 102.5,311.5 Z"/></g>
<g><path style="opacity:1" fill="#fed6d0" d="M 102.5,311.5 C 109.599,314.756 116.932,317.422 124.5,319.5C 133.492,331.487 139.825,344.821 143.5,359.5C 140.833,359.5 138.167,359.5 135.5,359.5C 134.975,392.106 142.975,422.44 159.5,450.5C 159.291,451.086 158.957,451.586 158.5,452C 142.77,456.744 127.103,461.578 111.5,466.5C 107.094,455.115 103.594,443.448 101,431.5C 93.213,391.367 93.713,351.367 102.5,311.5 Z"/></g>
<g><path style="opacity:1" fill="#fdd5d0" d="M 320.5,322.5 C 322.907,323.794 325.074,325.461 327,327.5C 327.5,338.161 327.667,348.828 327.5,359.5C 324.833,359.5 322.167,359.5 319.5,359.5C 319.629,395.441 313.129,430.108 300,463.5C 299.086,465.664 297.919,467.664 296.5,469.5C 289.139,467.157 281.805,464.824 274.5,462.5C 291.745,416.788 298.745,369.454 295.5,320.5C 304.004,317.488 312.337,318.154 320.5,322.5 Z"/></g>
<g><path style="opacity:1" fill="#fdc5c1" d="M 295.5,320.5 C 298.745,369.454 291.745,416.788 274.5,462.5C 262.877,459.011 251.211,455.678 239.5,452.5C 250.465,431.775 257.965,409.775 262,386.5C 262.88,377.518 263.38,368.518 263.5,359.5C 260.833,359.5 258.167,359.5 255.5,359.5C 260.968,349.03 267.968,339.697 276.5,331.5C 281.819,326.009 288.153,322.343 295.5,320.5 Z"/></g>
<g><path style="opacity:1" fill="#f6f9fc" d="M 442.5,343.5 C 441.436,339.441 441.436,335.441 442.5,331.5C 443.646,329.525 445.313,328.025 447.5,327C 462.146,325.492 470.812,331.992 473.5,346.5C 473.451,353.882 469.785,357.549 462.5,357.5C 453.359,356.357 446.692,351.69 442.5,343.5 Z"/></g>
<g><path style="opacity:1" fill="#fec5c1" d="M 151.5,365.5 C 168.856,366.581 186.19,367.747 203.5,369C 216.337,374.165 221.837,383.665 220,397.5C 214.073,422.35 203.573,445.017 188.5,465.5C 165.13,436.405 152.797,403.072 151.5,365.5 Z"/></g>
<g><path style="opacity:1" fill="#f6f9fb" d="M 451.5,366.5 C 459.255,365.596 463.922,368.93 465.5,376.5C 465.61,378.374 464.944,379.874 463.5,381C 455.776,382.455 451.11,379.288 449.5,371.5C 449.437,369.486 450.103,367.819 451.5,366.5 Z"/></g>
<g><path style="opacity:1" fill="#e4989c" d="M 332.5,404.5 C 332.5,405.5 332.5,406.5 332.5,407.5C 334.167,407.5 335.833,407.5 337.5,407.5C 330.221,419.596 328.554,418.596 332.5,404.5 Z"/></g>
<g><path style="opacity:1" fill="#404851" d="M 47.5,479.5 C 36.7172,481.856 28.8838,478.19 24,468.5C 23.5001,451.837 23.3334,435.17 23.5,418.5C 25.4564,416.452 27.9564,415.452 31,415.5C 37.8735,415.435 42.8735,418.435 46,424.5C 47.4606,442.765 47.9606,461.098 47.5,479.5 Z"/></g>
<g><path style="opacity:1" fill="#32383f" d="M 357.5,415.5 C 355.06,418.455 353.227,421.789 352,425.5C 351.333,447.833 351.333,470.167 352,492.5C 352.513,493.527 353.013,494.527 353.5,495.5C 348.577,496.129 345.411,494.129 344,489.5C 343.333,468.833 343.333,448.167 344,427.5C 346.156,420.843 350.656,416.843 357.5,415.5 Z"/></g>
<g><path style="opacity:1" fill="#404851" d="M 357.5,415.5 C 366.476,414.984 372.309,418.984 375,427.5C 375.5,450.164 375.667,472.831 375.5,495.5C 368.167,495.5 360.833,495.5 353.5,495.5C 353.013,494.527 352.513,493.527 352,492.5C 351.333,470.167 351.333,447.833 352,425.5C 353.227,421.789 355.06,418.455 357.5,415.5 Z"/></g>
<g><path style="opacity:1" fill="#32383f" d="M 23.5,418.5 C 23.3334,435.17 23.5001,451.837 24,468.5C 28.8838,478.19 36.7172,481.856 47.5,479.5C 47.5,484.833 47.5,490.167 47.5,495.5C 38.4938,495.666 29.4938,495.5 20.5,495C 17.8981,494.065 16.3981,492.232 16,489.5C 15.3333,468.833 15.3333,448.167 16,427.5C 16.9158,423.092 19.4158,420.092 23.5,418.5 Z"/></g>
<g><path style="opacity:1" fill="#f9a6aa" d="M 326.5,431.5 C 327.2,452.36 327.866,473.36 328.5,494.5C 323.42,494.75 318.42,494.25 313.5,493C 310.274,491.894 307.607,490.061 305.5,487.5C 315.879,470.08 322.879,451.413 326.5,431.5 Z"/></g>
<g><path style="opacity:1" fill="#fac2be" d="M 80.5,469.5 C 75.0967,471.205 69.43,471.872 63.5,471.5C 63.5,462.833 63.5,454.167 63.5,445.5C 66.7479,445.901 69.9146,446.568 73,447.5C 75.2283,454.95 77.7283,462.283 80.5,469.5 Z"/></g>
<g><path style="opacity:1" fill="#fde1dd" d="M 423.5,455.5 C 424.804,456.987 425.97,458.654 427,460.5C 430.355,469.874 431.355,479.541 430,489.5C 429.617,490.056 429.117,490.389 428.5,490.5C 427.781,486.562 426.115,483.062 423.5,480C 416.407,478.455 409.74,475.789 403.5,472C 399.617,468.902 395.617,466.068 391.5,463.5C 391.334,458.821 391.501,454.155 392,449.5C 401.212,457.022 411.712,461.689 423.5,463.5C 423.5,460.833 423.5,458.167 423.5,455.5 Z"/></g>
<g><path style="opacity:1" fill="#fdd5cf" d="M 391.5,463.5 C 395.617,466.068 399.617,468.902 403.5,472C 409.74,475.789 416.407,478.455 423.5,480C 426.115,483.062 427.781,486.562 428.5,490.5C 428.5,490.833 428.5,491.167 428.5,491.5C 416.254,493.549 403.92,494.882 391.5,495.5C 391.5,484.833 391.5,474.167 391.5,463.5 Z"/></g>
<g><path style="opacity:1" fill="#3f4750" d="M 174.5,476.5 C 174.586,477.496 174.252,478.329 173.5,479C 158.01,487.874 141.344,493.041 123.5,494.5C 117.802,492.983 112.968,489.983 109,485.5C 108.409,484.517 108.743,483.85 110,483.5C 129.529,477.576 149.029,471.576 168.5,465.5C 171.798,468.428 173.798,472.095 174.5,476.5 Z"/></g>
<g><path style="opacity:1" fill="#404851" d="M 272.5,494.5 C 256.19,492.756 240.857,487.923 226.5,480C 225.177,479.184 224.511,478.017 224.5,476.5C 224.935,471.946 227.101,468.613 231,466.5C 250.337,471.792 269.504,477.626 288.5,484C 284.969,490.264 279.635,493.764 272.5,494.5 Z"/></g>
<g><path style="opacity:1" fill="#fba5aa" d="M 80.5,469.5 C 83.9417,477.295 88.275,484.628 93.5,491.5C 83.7885,494.9 73.7885,496.233 63.5,495.5C 63.5,487.5 63.5,479.5 63.5,471.5C 69.43,471.872 75.0967,471.205 80.5,469.5 Z"/></g>
<g><path style="opacity:1" fill="#333940" d="M 174.5,476.5 C 175.49,482.645 175.823,488.978 175.5,495.5C 157.992,495.83 140.659,495.497 123.5,494.5C 141.344,493.041 158.01,487.874 173.5,479C 174.252,478.329 174.586,477.496 174.5,476.5 Z"/></g>
<g><path style="opacity:1" fill="#32383f" d="M 224.5,476.5 C 224.511,478.017 225.177,479.184 226.5,480C 240.857,487.923 256.19,492.756 272.5,494.5C 256.342,495.496 240.009,495.83 223.5,495.5C 223.177,488.978 223.51,482.645 224.5,476.5 Z"/></g>
</svg>
